<svg xmlns="http://www.w3.org/2000/svg" version="1.1" xmlns:xlink="http://www.w3.org/1999/xlink" xmlns:svgjs="http://svgjs.dev/svgjs" width="1000" height="1000" viewBox="0 0 1000 1000"><rect width="1000" height="1000" fill="#0093fb"></rect><g transform="matrix(0.7,0,0,0.7,150,218.95000000000005)"><svg viewBox="0 0 448 360" data-background-color="#0093fb" preserveAspectRatio="xMidYMid meet" height="803" width="1000" xmlns="http://www.w3.org/2000/svg" xmlns:xlink="http://www.w3.org/1999/xlink"><g id="tight-bounds" transform="matrix(1,0,0,1,0,0)"><svg viewBox="0 0 448 360" height="360" width="448"><g><svg></svg></g><g><svg viewBox="0 0 448 360" height="360" width="448"><g><path xmlns="http://www.w3.org/2000/svg" d="M193.855 44.683c1.378 0 2.494 1.116 2.495 2.494 0 1.378-1.116 2.494-2.495 2.495h-23.846l-17.167 17.167c-0.973 0.973-2.551 0.973-3.53 0-0.973-0.973-0.973-2.551 0-3.529l13.644-13.645h-40.378c-11.518 0-19.151 2.688-23.815 8.113-4.739 5.519-6.66 14.056-6.66 25.63 0 0.069 0 0.137-0.006 0.206l0.212 36.692 14.692-14.692c0.973-0.973 2.551-0.973 3.53 0 0.973 0.973 0.973 2.551 0 3.53l-18.178 18.178c0.206 35.832 0.193 71.358-0.013 107.19 25.486 25.2 50.617 50.312 75.811 75.791h25.38c1.378 0 2.494 1.116 2.495 2.495 0 1.378-1.116 2.494-2.495 2.494h-20.448l25.942 26.241 0.006-0.006c8.188 8.188 15.577 12.859 22.824 13.413 7.146 0.543 14.442-2.956 22.586-11.093l28.555-28.555h-20.722c-1.378 0-2.494-1.116-2.495-2.494 0-1.378 1.116-2.494 2.495-2.495h25.711l16.625-16.625c0.973-0.973 2.551-0.973 3.529 0 0.973 0.973 0.973 2.551 0 3.53l-13.101 13.102h40.377c11.518 0 19.151-2.688 23.815-8.113 4.739-5.519 6.66-14.056 6.66-25.63h0.013l-0.212-36.898-16.014 16.014c-0.973 0.973-2.551 0.973-3.53 0-0.973-0.973-0.973-2.551 0-3.53l19.5-19.5c-0.206-35.832-0.193-71.358 0.013-107.19-25.486-25.2-50.617-50.312-75.811-75.791h-26.147c-1.378 0-2.494-1.116-2.495-2.495 0-1.378 1.116-2.494 2.495-2.494h21.215l-25.824-26.123c-0.044-0.037-0.081-0.075-0.124-0.112-8.188-8.188-15.577-12.859-22.824-13.413-7.146-0.543-14.442 2.956-22.586 11.093l-28.555 28.555h18.858zM122.578 44.683h45.367l32.078-32.078c9.248-9.248 17.81-13.195 26.484-12.534 8.568 0.649 16.956 5.824 25.985 14.854 0.05 0.05 0.094 0.094 0.137 0.143l29.278 29.615h43.508c13.071 0 21.919 3.268 27.594 9.871 5.6 6.517 7.864 16.101 7.864 28.867 0 0.081-0.006 0.156-0.012 0.23l-0.225 39.742 28.43 28.112 0.006-0.006c9.03 9.03 14.206 17.411 14.854 25.985 0.661 8.674-3.293 17.236-12.534 26.484l-30.768 30.768 0.237 41.843h0.012c0 12.765-2.27 22.35-7.864 28.867-5.675 6.604-14.524 9.872-27.594 9.871h-45.366l-32.078 32.078c-9.248 9.248-17.81 13.195-26.484 12.534-8.568-0.649-16.956-5.824-25.985-14.854l0.006-0.006-29.421-29.758h-43.509c-13.071 0-21.919-3.268-27.594-9.872-5.6-6.517-7.864-16.101-7.863-28.866h0.012l0.231-39.972-28.293-27.969c-0.05-0.044-0.1-0.087-0.143-0.137-9.03-9.03-14.206-17.411-14.854-25.985-0.661-8.674 3.293-17.236 12.534-26.484l30.768-30.768-0.237-41.607c-0.006-0.075-0.012-0.156-0.012-0.23 0-12.765 2.27-22.35 7.864-28.867 5.675-6.604 14.524-9.872 27.594-9.871zM87.682 179.997l-0.274-47.724-27.276 27.276c-8.138 8.138-11.636 15.44-11.094 22.587 0.549 7.246 5.226 14.642 13.413 22.823 0.037 0.037 0.081 0.081 0.113 0.125l24.837 24.551 0.281-49.644zM92.303 241.483l-0.2 35.09h0.013c0 11.58 1.921 20.117 6.66 25.63 4.664 5.432 12.297 8.113 23.815 8.113h38.576l-33.55-33.936-35.308-34.903zM325.415 49.672h-38.575l33.549 33.936 35.308 34.902 0.2-34.884c-0.006-0.069-0.006-0.137-0.007-0.205 0-11.58-1.921-20.117-6.66-25.63-4.664-5.432-12.297-8.113-23.815-8.113zM360.599 130.352l-0.281 49.645 0.274 47.724 27.276-27.276c8.138-8.138 11.636-15.44 11.094-22.587-0.549-7.252-5.226-14.642-13.413-22.824l0.006-0.006-24.956-24.669z" fill="#ffffff" fill-rule="nonzero" stroke="none" stroke-width="1" stroke-linecap="butt" stroke-linejoin="miter" stroke-miterlimit="10" stroke-dasharray="" stroke-dashoffset="0" font-family="none" font-weight="none" font-size="none" text-anchor="none" style="mix-blend-mode: normal" data-fill-palette-color="tertiary"></path></g><g transform="matrix(1,0,0,1,112,114.79402209226771)"><svg viewBox="0 0 224 130.41195581546458" height="130.41195581546458" width="224"><g><svg viewBox="0 0 224 130.41195581546458" height="130.41195581546458" width="224"><g><svg viewBox="0 0 224 130.41195581546458" height="130.41195581546458" width="224"><g><svg viewBox="0 0 224 130.41195581546458" height="130.41195581546458" width="224"><g id="textblocktransform"><svg viewBox="0 0 224 130.41195581546458" height="130.41195581546458" width="224" id="textblock"><g><svg viewBox="0 0 224 130.41195581546458" height="130.41195581546458" width="224"><g transform="matrix(1,0,0,1,0,0)"><svg width="224" viewBox="-3.149999976158142 -41.5 85.8499984741211 45.79999923706055" height="130.41195581546458" data-palette-color="#ffffff"><path d="M19.55-32.8L19.55-32.8Q18.5-32.1 17.73-30.2 16.95-28.3 16.43-25.85 15.9-23.4 15.65-20.7 15.4-18 15.4-15.6L15.4-15.6Q15.4-12 15.93-9.75 16.45-7.5 17.23-6.25 18-5 18.88-4.58 19.75-4.15 20.45-4.15L20.45-4.15Q21.95-4.15 23.08-5.53 24.2-6.9 24.98-9.2 25.75-11.5 26.13-14.48 26.5-17.45 26.5-20.65L26.5-20.65Q26.5-25.2 25.78-28.05 25.05-30.9 23.8-32.5 22.55-34.1 20.88-34.65 19.2-35.2 17.35-35.2L17.35-35.2Q14.95-35.2 12.8-34.48 10.65-33.75 9.05-32.35 7.45-30.95 6.53-28.9 5.6-26.85 5.6-24.25L5.6-24.25Q5.6-22.4 6-21.43 6.4-20.45 6.95-19.65L6.95-19.65Q4.1-19.65 2.48-20.93 0.85-22.2 0.85-25L0.85-25Q0.85-27.55 2.23-29.83 3.6-32.1 5.95-33.8 8.3-35.5 11.48-36.5 14.65-37.5 18.25-37.5L18.25-37.5Q22.6-37.5 25.55-36.05 28.5-34.6 30.25-32.1 32-29.6 32.75-26.3 33.5-23 33.5-19.35L33.5-19.35Q33.5-17.15 33.25-14.85 33-12.55 32.38-10.38 31.75-8.2 30.75-6.25 29.75-4.3 28.25-2.85 26.75-1.4 24.7-0.55 22.65 0.3 20 0.3L20 0.3Q17.6 0.3 15.43-0.5 13.25-1.3 11.58-3.15 9.9-5 8.93-8.03 7.95-11.05 7.95-15.55L7.95-15.55Q7.95-18.25 8.38-21.35 8.8-24.45 9.85-27.08 10.9-29.7 12.65-31.45 14.4-33.2 17-33.2L17-33.2Q17.55-33.2 18.2-33.13 18.85-33.05 19.55-32.8ZM37.2-34L44.4-35 44.4-8Q44.4-5.9 44.97-5.23 45.55-4.55 47-4.55L47-4.55Q48.45-4.55 49.42-5.8 50.4-7.05 50.55-8.95L50.55-8.95 52.65-8.95Q52.25-5.9 51.25-4.08 50.25-2.25 49-1.28 47.75-0.3 46.45 0 45.15 0.3 44.15 0.3L44.15 0.3Q40.3 0.3 38.75-1.83 37.2-3.95 37.2-7.45L37.2-7.45 37.2-34ZM67.9-12.15L69.05-8.9Q69.9-6.45 70.82-5.5 71.75-4.55 72.95-4.55L72.95-4.55Q74.45-4.55 75.42-5.73 76.4-6.9 76.6-8.95L76.6-8.95 78.7-8.95Q78.3-5.95 77.32-4.15 76.35-2.35 75.17-1.35 74-0.35 72.8-0.03 71.6 0.3 70.75 0.3L70.75 0.3Q68.25 0.3 66.3-1.75 64.35-3.8 62.6-8.4L62.6-8.4 57.45 0 53.85 0 61.5-11.4 59.5-17Q58.6-19.5 58-20.33 57.4-21.15 56.75-21.15L56.75-21.15Q56-21.15 55.27-20.4 54.55-19.65 53.95-18.15 53.35-16.65 52.97-14.35 52.6-12.05 52.6-8.95L52.6-8.95 50.5-8.95Q50.5-11.75 50.87-14.65 51.25-17.55 52.17-19.9 53.1-22.25 54.7-23.75 56.3-25.25 58.8-25.25L58.8-25.25Q60.3-25.25 61.4-24.73 62.5-24.2 63.27-23.33 64.05-22.45 64.6-21.4 65.15-20.35 65.5-19.3L65.5-19.3 66.8-15.4Q68.3-17.5 69.12-19.1 69.95-20.7 69.95-22L69.95-22Q69.95-22.45 69.9-22.7L69.9-22.7Q69.55-22.65 69.5-22.63 69.45-22.6 69.15-22.6L69.15-22.6Q67.55-22.6 66.8-23.5 66.05-24.4 66.05-25.45L66.05-25.45Q66.05-26.75 67-27.48 67.95-28.2 69.15-28.2L69.15-28.2Q70.55-28.2 71.75-27.13 72.95-26.05 72.95-23.65L72.95-23.65Q72.95-21.3 71.52-18.25 70.1-15.2 67.9-12.15L67.9-12.15Z" opacity="1" transform="matrix(1,0,0,1,0,0)" fill="#ffffff" class="wordmark-text-0" data-fill-palette-color="primary" id="text-0"></path></svg></g></svg></g></svg></g></svg></g></svg></g></svg></g></svg></g></svg></g><defs></defs></svg><rect width="448" height="360" fill="none" stroke="none" visibility="hidden"></rect></g></svg></g></svg>